<svg xmlns="http://www.w3.org/2000/svg"
    xmlns:xlink="http://www.w3.org/1999/xlink" width="50" zoomAndPan="magnify" viewBox="0 0 37.5 37.5" height="50" preserveAspectRatio="xMidYMid meet" version="1.0">
    <circle cx="18.75" cy="18.75" r="18.75" fill="#ffffff"/>
    <circle cx="18.75" cy="18.75" r="18.75" fill="#161719"/>
    <path fill="#f4e2e2" d="M 12.058594 14.734375 L 7.710938 18.355469 L 12.058594 21.976562 C 12.242188 22.125 12.347656 22.320312 12.375 22.558594 C 12.398438 22.796875 12.332031 23.007812 12.179688 23.191406 C 12.027344 23.375 11.828125 23.476562 11.589844 23.496094 C 11.351562 23.515625 11.140625 23.449219 10.960938 23.289062 L 5.828125 19.011719 C 5.730469 18.929688 5.652344 18.832031 5.601562 18.71875 C 5.546875 18.601562 5.519531 18.480469 5.519531 18.355469 C 5.519531 18.226562 5.546875 18.105469 5.601562 17.992188 C 5.652344 17.875 5.730469 17.777344 5.828125 17.699219 L 10.960938 13.417969 C 11.144531 13.265625 11.351562 13.203125 11.585938 13.222656 C 11.820312 13.246094 12.015625 13.347656 12.167969 13.527344 C 12.316406 13.710938 12.382812 13.917969 12.359375 14.15625 C 12.339844 14.390625 12.238281 14.582031 12.058594 14.734375 Z M 30.882812 17.699219 L 25.75 13.417969 C 25.566406 13.265625 25.359375 13.203125 25.125 13.222656 C 24.886719 13.246094 24.695312 13.347656 24.542969 13.527344 C 24.390625 13.710938 24.328125 13.917969 24.347656 14.152344 C 24.371094 14.390625 24.472656 14.582031 24.652344 14.734375 L 29 18.355469 L 24.652344 21.976562 C 24.464844 22.125 24.359375 22.320312 24.335938 22.558594 C 24.3125 22.796875 24.378906 23.007812 24.53125 23.191406 C 24.683594 23.375 24.878906 23.476562 25.121094 23.496094 C 25.359375 23.515625 25.566406 23.449219 25.75 23.289062 L 30.882812 19.011719 C 30.980469 18.929688 31.058594 18.832031 31.109375 18.71875 C 31.164062 18.601562 31.191406 18.480469 31.191406 18.355469 C 31.191406 18.226562 31.164062 18.105469 31.109375 17.992188 C 31.058594 17.875 30.980469 17.777344 30.882812 17.699219 Z M 22.070312 8.136719 C 21.847656 8.054688 21.628906 8.066406 21.417969 8.167969 C 21.203125 8.265625 21.054688 8.425781 20.972656 8.648438 L 14.128906 27.476562 C 14.046875 27.699219 14.054688 27.917969 14.15625 28.132812 C 14.257812 28.347656 14.417969 28.492188 14.640625 28.574219 C 14.734375 28.609375 14.832031 28.625 14.933594 28.625 C 15.113281 28.625 15.277344 28.574219 15.421875 28.46875 C 15.570312 28.367188 15.675781 28.230469 15.738281 28.0625 L 22.582031 9.234375 C 22.664062 9.011719 22.652344 8.792969 22.554688 8.578125 C 22.453125 8.367188 22.292969 8.21875 22.070312 8.136719 Z M 22.070312 8.136719 " fill-opacity="1" fill-rule="nonzero"/>
</svg>
