<svg xmlns="http://www.w3.org/2000/svg"
    xmlns:xlink="http://www.w3.org/1999/xlink" width="40" zoomAndPan="magnify" viewBox="0 0 30 30" height="40" preserveAspectRatio="xMidYMid meet" version="1.0">
    <defs>
        <clipPath id="circleClip">
            <circle cx="15" cy="15" r="15"/>
        </clipPath>
    </defs>
    <g clip-path="url(#circleClip)">
        <circle fill="#ffffff" cx="15" cy="15" r="15"/>
        <circle fill="#161719" cx="15" cy="15" r="15"/>
    </g>
    <g clip-path="url(#circleClip)">
        <path fill="#f4e2e2" d="M 10.566406 11.996094 L 7.457031 14.589844 L 10.566406 17.179688 C 10.699219 17.285156 10.773438 17.425781 10.792969 17.597656 C 10.808594 17.765625 10.761719 17.917969 10.652344 18.050781 C 10.542969 18.183594 10.402344 18.253906 10.230469 18.269531 C 10.0625 18.28125 9.910156 18.234375 9.78125 18.121094 L 6.105469 15.058594 C 6.039062 15 5.984375 14.929688 5.945312 14.847656 C 5.90625 14.765625 5.886719 14.679688 5.886719 14.589844 C 5.886719 14.496094 5.90625 14.410156 5.945312 14.328125 C 5.984375 14.246094 6.039062 14.175781 6.105469 14.117188 L 9.78125 11.054688 C 9.910156 10.949219 10.0625 10.902344 10.230469 10.917969 C 10.398438 10.933594 10.535156 11.003906 10.644531 11.136719 C 10.753906 11.265625 10.796875 11.414062 10.78125 11.582031 C 10.769531 11.75 10.695312 11.890625 10.566406 11.996094 Z M 24.039062 14.117188 L 20.363281 11.054688 C 20.234375 10.949219 20.085938 10.902344 19.914062 10.917969 C 19.746094 10.933594 19.609375 11.003906 19.5 11.132812 C 19.390625 11.265625 19.347656 11.414062 19.363281 11.582031 C 19.375 11.75 19.449219 11.890625 19.578125 11.996094 L 22.6875 14.589844 L 19.578125 17.179688 C 19.445312 17.285156 19.371094 17.425781 19.351562 17.597656 C 19.335938 17.765625 19.382812 17.917969 19.492188 18.050781 C 19.601562 18.183594 19.742188 18.253906 19.914062 18.269531 C 20.082031 18.28125 20.234375 18.234375 20.363281 18.121094 L 24.039062 15.058594 C 24.109375 15 24.160156 14.929688 24.199219 14.847656 C 24.238281 14.765625 24.257812 14.679688 24.257812 14.589844 C 24.257812 14.496094 24.238281 14.410156 24.199219 14.328125 C 24.160156 14.246094 24.109375 14.175781 24.039062 14.117188 Z M 17.730469 7.277344 C 17.570312 7.21875 17.417969 7.226562 17.261719 7.296875 C 17.109375 7.367188 17.003906 7.484375 16.945312 7.644531 L 12.046875 21.117188 C 11.988281 21.273438 11.996094 21.429688 12.066406 21.585938 C 12.140625 21.738281 12.253906 21.84375 12.414062 21.902344 C 12.480469 21.925781 12.550781 21.9375 12.621094 21.9375 C 12.910156 21.9375 13.101562 21.804688 13.199219 21.535156 L 18.097656 8.0625 C 18.15625 7.902344 18.148438 7.746094 18.078125 7.59375 C 18.003906 7.441406 17.890625 7.335938 17.730469 7.277344 Z M 17.730469 7.277344 " fill-opacity="1" fill-rule="nonzero"/>
    </g>
</svg>
